<svg width="30px" height="30px" viewBox="0 0 30 30" version="1.1" xmlns="http://www.w3.org/2000/svg" xmlns:xlink="http://www.w3.org/1999/xlink">
    <g stroke="none" stroke-width="1" fill="none" fill-rule="evenodd">
        <path d="M7.4779985,-3.0212009e-16 L22.6335257,-1.5129698e-16 C25.2337887,8.79079024e-17 26.1767068,0.270741366 27.1273241,0.779137053 C28.0779414,1.28753274 28.8239914,2.03358275 29.3323871,2.98420003 C29.8407828,3.93481732 30.1115242,4.87773551 30.1115242,7.4779985 L30.1115242,22.5220015 C30.1115242,25.1222645 29.8407828,26.0651827 29.3323871,27.0158 C28.8239914,27.9664173 28.0779414,28.7124673 27.1273241,29.2208629 C26.1767068,29.7292586 25.2337887,30 22.6335257,30 L7.4779985,30 C4.87773551,30 3.93481732,29.7292586 2.98420003,29.2208629 C2.03358275,28.7124673 1.28753274,27.9664173 0.779137053,27.0158 C0.270741366,26.0651827 3.80475357e-16,25.1222645 -6.54830463e-16,22.5220015 L2.01413393e-16,7.4779985 C-1.17026982e-16,4.87773551 0.270741366,3.93481732 0.779137053,2.98420003 C1.28753274,2.03358275 2.03358275,1.28753274 2.98420003,0.779137053 C3.93481732,0.270741366 4.87773551,1.75540473e-16 7.4779985,-3.0212009e-16 Z" fill="#0077BB"/>
        <path d="M17.2282474,5.8010269 L16.1235725,12.5377919 L21.7472119,12.5377919 C22.4292003,12.5377919 22.8245295,13.3072375 22.4257318,13.8584231 L14.5545707,24.7372978 C14.0381838,25.4510055 12.9081822,24.983937 13.050563,24.1156398 L14.1552379,17.3788747 L8.53159851,17.3788747 C7.84961015,17.3788747 7.45428088,16.6094292 7.8530786,16.0582436 L15.7242397,5.17936886 C16.2406266,4.46566121 17.3706282,4.93272971 17.2282474,5.8010269 Z M15.0047093,9.02402986 L10.1656309,15.7122081 L15.1394052,15.7122081 C15.6551824,15.7122081 16.0480529,16.1727579 15.964893,16.6799016 L15.2741011,20.8926368 L20.1131795,14.2044586 L15.1394052,14.2044586 C14.623628,14.2044586 14.2307575,13.7439087 14.3139174,13.236765 L15.0047093,9.02402986 Z" fill="#FFFFFF"/>
    </g>
</svg>