<svg xmlns="http://www.w3.org/2000/svg" width="720" height="720" viewBox="0 0 720 720">
  <g fill="none" fill-rule="evenodd">
    <path fill="#07B" d="M179.471964,7.25846407e-15 L540.528036,7.25088215e-15 C602.934348,-4.21297134e-15 625.564384,6.49779278 648.379199,18.6992893 C671.194014,30.9007857 689.099214,48.8059859 701.300711,71.6208008 C713.502207,94.4356156 720,117.065652 720,179.471964 L720,540.528036 C720,602.934348 713.502207,625.564384 701.300711,648.379199 C689.099214,671.194014 671.194014,689.099214 648.379199,701.300711 C625.564384,713.502207 602.934348,720 540.528036,720 L179.471964,720 C117.065652,720 94.4356156,713.502207 71.6208008,701.300711 C48.8059859,689.099214 30.9007857,671.194014 18.6992893,648.379199 C6.49779278,625.564384 -5.62170044e-15,602.934348 9.67542479e-15,540.528036 L4.83392144e-15,179.471964 C-2.80864756e-15,117.065652 6.49779278,94.4356156 18.6992893,71.6208008 C30.9007857,48.8059859 48.8059859,30.9007857 71.6208008,18.6992893 C94.4356156,6.49779278 117.065652,-4.21737666e-15 179.471964,7.25846407e-15 Z"/>
    <path fill="#FFF" d="M411.946538,139.224646 L385.532534,300.907006 L520,300.907006 C536.307099,300.907006 545.759862,319.3737 536.224165,332.602154 L348.015957,593.695147 C335.668573,610.824131 308.648979,599.614487 312.053462,578.775354 L338.467466,417.092994 L204,417.092994 C187.692901,417.092994 178.240138,398.6263 187.775835,385.397846 L375.984043,124.304853 C388.331427,107.175869 415.351021,118.385513 411.946538,139.224646 Z M358.779272,216.576717 L243.07153,377.092994 L362,377.092994 C374.332806,377.092994 383.726776,388.14619 381.73833,400.317639 L365.220728,501.423283 L480.92847,340.907006 L362,340.907006 C349.667194,340.907006 340.273224,329.85381 342.26167,317.682361 L358.779272,216.576717 Z"/>
  </g>
</svg>
